HIERARCHY
ROOT Hips
{
	OFFSET -0.001795 -0.223333 0.028219
	CHANNELS 6 Xposition Yposition Zposition Zrotation Yrotation Xrotation 
	JOINT LeftUpLeg
	{
		OFFSET 0.069520 -0.091406 -0.006815
		CHANNELS 3 Zrotation Yrotation Xrotation
		JOINT LeftLeg
		{
			OFFSET 0.034277 -0.375199 -0.004496
			CHANNELS 3 Zrotation Yrotation Xrotation
			JOINT LeftFoot
			{
				OFFSET -0.013596 -0.397961 -0.043693
				CHANNELS 3 Zrotation Yrotation Xrotation
				JOINT LeftToe
				{
					OFFSET 0.026358 -0.055791 0.119288
					CHANNELS 3 Zrotation Yrotation Xrotation
					End Site
					{
						OFFSET 0.000000 0.000000 0.000000
					}
				}
			}
		}
	}
	JOINT RightUpLeg
	{
		OFFSET -0.067670 -0.090522 -0.004320
		CHANNELS 3 Zrotation Yrotation Xrotation
		JOINT RightLeg
		{
			OFFSET -0.038290 -0.382569 -0.008850
			CHANNELS 3 Zrotation Yrotation Xrotation
			JOINT RightFoot
			{
				OFFSET 0.015774 -0.398415 -0.042312
				CHANNELS 3 Zrotation Yrotation Xrotation
				JOINT RightToe
				{
					OFFSET -0.025372 -0.048144 0.123348
					CHANNELS 3 Zrotation Yrotation Xrotation
					End Site
					{
						OFFSET 0.000000 0.000000 0.000000
					}
				}
			}
		}
	}
	JOINT Spine
	{
		OFFSET -0.002533 0.108963 -0.026696
		CHANNELS 3 Zrotation Yrotation Xrotation
		JOINT Spine1
		{
			OFFSET 0.005487 0.135180 0.001092
			CHANNELS 3 Zrotation Yrotation Xrotation
			JOINT Spine2
			{
				OFFSET 0.001457 0.052922 0.025425
				CHANNELS 3 Zrotation Yrotation Xrotation
				JOINT Neck
				{
					OFFSET -0.002778 0.213870 -0.042857
					CHANNELS 3 Zrotation Yrotation Xrotation
					JOINT Head
					{
						OFFSET 0.005152 0.064970 0.051349
						CHANNELS 3 Zrotation Yrotation Xrotation
						End Site
						{
							OFFSET 0.000000 0.000000 0.000000
						}
					}
				}
				JOINT LeftShoulder
				{
					OFFSET 0.078845 0.121749 -0.034090
					CHANNELS 3 Zrotation Yrotation Xrotation
					JOINT LeftArm
					{
						OFFSET 0.090977 0.030469 -0.008868
						CHANNELS 3 Zrotation Yrotation Xrotation
						JOINT LeftForeArm
						{
							OFFSET 0.259612 -0.012772 -0.027456
							CHANNELS 3 Zrotation Yrotation Xrotation
							JOINT LeftHand
							{
								OFFSET 0.249234 0.008986 -0.001171
								CHANNELS 3 Zrotation Yrotation Xrotation
								End Site
								{
									OFFSET 0.000000 0.000000 0.000000
								}
							}
						}
					}
				}
				JOINT RightShoulder
				{
					OFFSET -0.081759 0.118833 -0.038615
					CHANNELS 3 Zrotation Yrotation Xrotation
					JOINT RightArm
					{
						OFFSET -0.096012 0.032551 -0.009143
						CHANNELS 3 Zrotation Yrotation Xrotation
						JOINT RightForeArm
						{
							OFFSET -0.253742 -0.013329 -0.021401
							CHANNELS 3 Zrotation Yrotation Xrotation
							JOINT RightHand
							{
								OFFSET -0.255298 0.007772 -0.005559
								CHANNELS 3 Zrotation Yrotation Xrotation
								End Site
								{
									OFFSET 0.000000 0.000000 0.000000
								}
							}
						}
					}
				}
			}
		}
	}
}
MOTION
Frames: 13
Frame Time: 0.050000
0.000000 0.957262 0.000000 0.003152 2.443358 -1.538072 0.670710 -0.751163 -8.606149 -4.079511 0.386308 13.864060 3.519715 9.204459 6.238659 0.000000 0.000000 0.000000 -5.805340 0.738205 -14.008885 5.695158 -0.984265 20.156122 -7.248111 -18.154751 11.691164 0.000000 0.000000 0.000000 2.702742 -1.131126 16.470679 5.590018 -1.016182 -20.002002 1.561732 1.297506 25.428858 3.340271 -0.340261 -21.811471 0.000000 0.000000 0.000000 -12.136743 -11.794019 4.435275 -18.782825 -29.442424 0.120409 3.307330 -62.904258 -0.045467 0.000000 0.000000 0.000000 0.107884 14.020266 4.879248 9.398430 14.690002 -1.054210 -35.451202 31.677434 -8.618486 0.000000 0.000000 0.000000 
0.002352 0.955669 -0.002652 -0.226585 1.953998 -1.397389 0.971897 -0.790256 -9.309211 -4.966550 0.610482 14.980469 3.784501 9.240968 4.631319 0.000000 0.000000 0.000000 -5.063634 0.870684 -14.709089 4.731083 -0.685786 21.723125 -7.473189 -18.594153 11.014892 0.000000 0.000000 0.000000 3.699513 -1.305458 16.883512 4.708263 -0.697889 -21.152614 3.190449 2.574491 27.107002 4.479884 -1.071558 -20.659135 0.000000 0.000000 0.000000 -14.383432 -11.224302 4.083237 -17.168524 -27.709930 -0.295636 -0.426551 -62.986429 1.947895 0.000000 0.000000 0.000000 -0.891512 12.966292 4.391799 7.563853 14.425641 -1.074033 -31.340269 28.731604 -6.633969 0.000000 0.000000 0.000000 
0.004808 0.952526 -0.005345 0.680554 1.305847 -1.492406 -0.286090 -0.917718 -9.706631 -3.828645 0.360382 15.987648 4.056975 9.616781 4.216725 0.000000 0.000000 0.000000 -6.031409 0.818307 -15.723322 4.884445 -0.690044 22.526949 -7.248667 -18.239615 11.075046 0.000000 0.000000 0.000000 4.437138 -1.487504 18.009158 5.216765 -0.815114 -21.656112 2.781058 4.829952 27.312477 4.871968 -1.022081 -20.450247 0.000000 0.000000 0.000000 -14.184059 -10.631876 3.418087 -17.466724 -25.497382 -0.391183 -7.687114 -63.713087 6.062131 0.000000 0.000000 0.000000 0.238319 13.658851 4.822128 5.343921 13.065472 -1.044415 -29.606155 28.099305 -5.937537 0.000000 0.000000 0.000000 
0.007836 0.948653 -0.008174 0.548465 0.746521 -1.616109 0.149440 -1.012998 -11.120802 -4.856319 0.660366 18.763041 4.877934 10.933136 3.318866 0.000000 0.000000 0.000000 -6.532607 0.828555 -17.044505 5.309499 -0.808521 24.964915 -6.878241 -17.617889 11.208519 0.000000 0.000000 0.000000 5.162532 -1.685201 19.082684 5.207299 -0.895522 -20.701517 3.181586 5.259638 27.334370 4.172625 -0.337267 -22.156802 0.000000 0.000000 0.000000 -16.187043 -9.128019 2.597004 -16.957492 -22.328602 -0.652387 -11.086914 -65.313809 8.344591 0.000000 0.000000 0.000000 1.173017 14.298883 5.202560 2.029218 12.203266 -0.893720 -27.433231 25.745393 -5.006739 0.000000 0.000000 0.000000 
0.010833 0.941724 -0.010551 1.238859 -0.458548 -2.142758 -0.359642 -1.145751 -12.074677 -5.539713 0.970961 21.208333 5.697694 12.229164 2.028550 0.000000 0.000000 0.000000 -7.316453 0.813559 -18.439713 5.542377 -0.790054 27.556150 -6.909568 -17.730410 10.346111 0.000000 0.000000 0.000000 5.574476 -1.816167 20.460347 5.280981 -1.004901 -19.918125 3.464801 6.353071 26.675143 3.697691 -0.085662 -20.952923 0.000000 0.000000 0.000000 -17.556730 -9.663177 2.711730 -16.331608 -18.923982 -0.866093 -13.410209 -65.388751 9.722652 0.000000 0.000000 0.000000 2.258240 15.382787 5.780444 0.246052 11.002845 -0.728540 -26.242503 26.844284 -5.050907 0.000000 0.000000 0.000000 
0.013613 0.935593 -0.012924 1.531650 -1.344513 -2.485650 -0.380345 -1.238771 -13.100109 -6.547528 1.418460 23.352553 6.514711 13.776611 1.878569 0.000000 0.000000 0.000000 -7.784063 0.830125 -19.798662 5.818300 -0.803459 30.189088 -6.783732 -17.460882 8.867938 0.000000 0.000000 0.000000 6.242054 -2.002939 21.708334 5.094408 -1.041028 -19.025927 3.048975 6.761994 26.611047 3.111928 0.359049 -21.602228 0.000000 0.000000 0.000000 -18.830266 -9.644140 2.671424 -15.574117 -16.061067 -1.063598 -13.729124 -66.955654 10.173451 0.000000 0.000000 0.000000 3.405240 15.593838 6.053144 -1.431069 11.029357 -0.641580 -24.682115 27.729907 -4.962528 0.000000 0.000000 0.000000 
0.015244 0.931106 -0.014957 1.769672 -1.823654 -2.522239 -0.386757 -1.318414 -13.993659 -6.691950 1.560328 24.714665 6.709802 14.016450 0.780867 0.000000 0.000000 0.000000 -8.047230 0.848270 -20.756006 6.188271 -0.890919 31.975360 -6.853031 -17.552054 7.876578 0.000000 0.000000 0.000000 6.452894 -2.107441 22.720865 4.889612 -0.984861 -19.111592 2.823956 6.753456 26.783151 3.370889 0.124169 -21.411588 0.000000 0.000000 0.000000 -19.484983 -9.716127 2.771260 -14.512891 -14.846129 -1.147934 -9.291376 -67.175361 7.253407 0.000000 0.000000 0.000000 4.526772 15.830055 6.326817 -2.587510 10.361679 -0.524105 -22.574725 30.016595 -4.987697 0.000000 0.000000 0.000000 
0.015934 0.930293 -0.016571 1.819657 -2.184399 -2.613931 0.025832 -1.244392 -13.767194 -7.133943 1.724271 24.195686 6.870702 14.389525 1.252145 0.000000 0.000000 0.000000 -7.970765 0.878996 -20.814284 6.228331 -0.860525 32.007496 -6.696233 -17.218458 7.311396 0.000000 0.000000 0.000000 6.181246 -2.096280 23.464433 5.230634 -1.110239 -18.915853 2.170776 6.818312 26.572884 3.517899 -0.022902 -21.105787 0.000000 0.000000 0.000000 -20.281055 -9.656980 2.740151 -13.348437 -14.504716 -1.138643 -5.119163 -67.692636 4.501552 0.000000 0.000000 0.000000 5.051679 15.354090 6.221062 -3.104918 10.396024 -0.498576 -20.093388 32.613873 -4.830065 0.000000 0.000000 0.000000 
0.015849 0.932546 -0.017500 1.597235 -2.355990 -1.981699 0.428153 -1.198008 -13.831330 -7.090648 1.669027 22.966707 7.093060 14.877441 1.716497 0.000000 0.000000 0.000000 -7.618988 0.955852 -20.851248 6.232036 -0.847672 30.521136 -6.719895 -17.323267 7.722438 0.000000 0.000000 0.000000 5.826626 -2.062043 23.817022 4.907026 -0.983141 -19.328831 1.897031 6.112432 26.412091 3.478042 -0.029019 -22.086643 0.000000 0.000000 0.000000 -20.859166 -8.947900 2.547796 -11.987544 -15.052317 -1.121529 1.800223 -68.956302 -0.043261 0.000000 0.000000 0.000000 5.050718 14.607995 5.877662 -2.817003 10.282098 -0.516491 -18.705640 35.879007 -5.007260 0.000000 0.000000 0.000000 
0.015576 0.937175 -0.017389 1.265318 -2.868657 -1.280828 0.734659 -1.144834 -13.720490 -6.982470 1.589976 21.082741 7.083256 14.982016 2.965871 0.000000 0.000000 0.000000 -7.156295 1.049911 -20.549160 5.969166 -0.704731 28.176500 -6.233670 -16.513745 8.571483 0.000000 0.000000 0.000000 5.080810 -1.898452 23.834641 5.504773 -1.117843 -19.898389 1.296232 5.685489 26.284506 3.611200 -0.107920 -23.222974 0.000000 0.000000 0.000000 -20.757908 -7.917635 2.176400 -11.415217 -15.178439 -1.142524 9.030028 -70.219810 -5.034457 0.000000 0.000000 0.000000 4.828330 13.338261 5.304187 -1.951196 10.519895 -0.596602 -19.025094 38.548542 -5.568590 0.000000 0.000000 0.000000 
0.015409 0.943480 -0.016346 0.955806 -2.822029 -0.404579 0.920796 -1.065102 -12.975146 -6.395597 1.306779 18.565157 6.683159 14.374078 4.259570 0.000000 0.000000 0.000000 -6.886510 1.067598 -19.861631 5.999329 -0.732241 24.951722 -6.323363 -16.896049 10.556716 0.000000 0.000000 0.000000 4.485324 -1.770241 23.475462 5.394924 -1.021227 -20.603818 0.953667 4.717087 26.549786 3.543899 -0.154634 -23.984649 0.000000 0.000000 0.000000 -20.764029 -6.928156 1.907002 -11.399884 -15.987944 -1.179767 18.616029 -71.767289 -11.950728 0.000000 0.000000 0.000000 3.925105 11.746141 4.529839 0.297015 10.040908 -0.695150 -21.842694 41.174499 -7.050051 0.000000 0.000000 0.000000 
0.015439 0.949590 -0.014891 0.548059 -2.738934 0.286306 1.128412 -1.008374 -12.520871 -5.553018 1.000101 16.467520 5.900148 13.076559 5.332192 0.000000 0.000000 0.000000 -6.135290 1.137483 -19.055227 5.714254 -0.656518 21.683031 -6.459044 -17.291378 12.191942 0.000000 0.000000 0.000000 4.066037 -1.658309 22.807057 5.427291 -1.049606 -20.241024 0.295682 3.858517 26.116993 3.516021 -0.300622 -23.591675 0.000000 0.000000 0.000000 -20.063006 -5.505974 1.351884 -12.263789 -16.455379 -1.205262 26.808639 -74.239245 -18.518793 0.000000 0.000000 0.000000 4.073459 10.212148 3.921012 2.597149 9.394035 -0.800093 -25.798886 43.294563 -9.009419 0.000000 0.000000 0.000000 
0.015670 0.954062 -0.014144 0.226283 -2.758443 1.169227 1.439845 -0.965023 -12.359231 -4.949289 0.804203 14.801164 5.145690 11.906887 6.626426 0.000000 0.000000 0.000000 -5.701761 1.205778 -18.989498 6.124449 -0.771752 19.672498 -6.595170 -17.673554 13.846202 0.000000 0.000000 0.000000 3.368642 -1.498337 22.329341 5.571408 -1.026578 -20.887114 0.285706 3.534868 26.789233 3.382058 -0.226870 -24.194279 0.000000 0.000000 0.000000 -19.597897 -4.494661 0.933751 -13.748668 -16.233674 -1.287250 33.896201 -76.300824 -24.688579 0.000000 0.000000 0.000000 4.321649 8.603160 3.318578 5.301791 8.911390 -0.979262 -29.138415 43.699570 -10.371066 0.000000 0.000000 0.000000 
